<svg xmlns="http://www.w3.org/2000/svg" width="40" height="40" viewBox="0 0 40 40">
    <g fill="none">
        <path fill="#D61E2F" d="M20 0C8.972 0 0 8.972 0 20s8.972 20 20 20 20-8.972 20-20S31.028 0 20 0z"/>
        <g fill="#FFF">
            <path d="M10.885 7.246c-.259 0-.468.21-.468.468v8.853c0 .258.21.468.468.468.259 0 .469-.21.469-.468V7.714c0-.258-.21-.468-.469-.468zM5.358 7.246c-.258 0-.468.21-.468.468v8.853c0 .258.21.468.468.468.259 0 .469-.21.469-.468V7.714c0-.258-.21-.468-.469-.468z" transform="translate(11.5 10)"/>
            <path d="M1.33 5.954v11.54c0 .682.25 1.323.687 1.782.435.461 1.04.723 1.674.724h8.862c.633-.001 1.239-.263 1.673-.724.437-.46.687-1.1.687-1.782V5.954c.869-.23 1.432-1.07 1.315-1.96-.116-.892-.875-1.558-1.774-1.558h-2.398V1.85c.003-.492-.192-.965-.54-1.313C11.167.19 10.694-.004 10.2 0H6.042c-.492-.004-.966.19-1.314.537-.349.348-.543.82-.54 1.313v.586H1.788c-.899 0-1.658.666-1.774 1.557-.116.892.447 1.73 1.315 1.961zm11.223 13.11H3.69c-.801 0-1.424-.689-1.424-1.57V5.995h11.71v11.5c0 .88-.623 1.568-1.424 1.568zM5.124 1.85c-.003-.244.093-.479.266-.65.173-.173.408-.267.652-.263h4.16c.243-.004.479.09.652.262.173.172.268.407.265.651v.586H5.124V1.85zM1.789 3.372h12.665c.466 0 .843.378.843.843 0 .466-.377.844-.843.844H1.79c-.465 0-.843-.378-.843-.844 0-.465.378-.843.843-.843z" transform="translate(11.5 10)"/>
            <path d="M8.122 7.246c-.259 0-.469.21-.469.468v8.853c0 .258.21.468.469.468.258 0 .468-.21.468-.468V7.714c0-.258-.21-.468-.468-.468z" transform="translate(11.5 10)"/>
        </g>
    </g>
</svg>
