<svg xmlns="http://www.w3.org/2000/svg" width="30" height="30" viewBox="0 0 30 30">
    <g fill="none" fill-rule="evenodd">
        <circle cx="15" cy="15" r="15" fill="#FF914A"/>
        <path fill="#FFF" fill-rule="nonzero" d="M22.538 18.965L16.933 8.661c-.9-1.516-3.096-1.518-3.998 0L7.33 18.965c-.92 1.55.194 3.511 1.998 3.511H20.54c1.803 0 2.92-1.96 2-3.51zm-7.604 1.652c-.513 0-.93-.417-.93-.93 0-.512.417-.93.93-.93.512 0 .93.418.93.93 0 .513-.418.93-.93.93zm.93-3.719c0 .513-.418.93-.93.93-.513 0-.93-.417-.93-.93v-4.649c0-.512.417-.93.93-.93.512 0 .93.418.93.93v4.649z"/>
    </g>
</svg>
