<svg xmlns="http://www.w3.org/2000/svg" width="52" height="53" viewBox="0 0 52 53">
    <defs>
        <filter id="prefix__a" width="167.5%" height="167.5%" x="-33.8%" y="-33.8%" filterUnits="objectBoundingBox">
            <feOffset dy="1" in="SourceAlpha" result="shadowOffsetOuter1"/>
            <feGaussianBlur in="shadowOffsetOuter1" result="shadowBlurOuter1" stdDeviation="3"/>
            <feColorMatrix in="shadowBlurOuter1" result="shadowMatrixOuter1" values="0 0 0 0 0.172873356 0 0 0 0 0.209975091 0 0 0 0 0.200458447 0 0 0 0.203043051 0"/>
            <feMerge>
                <feMergeNode in="shadowMatrixOuter1"/>
                <feMergeNode in="SourceGraphic"/>
            </feMerge>
        </filter>
    </defs>
    <g fill="none" filter="url(#prefix__a)" transform="translate(6 5.5)">
        <path fill="#04C090" d="M20 0C8.972 0 0 8.972 0 20s8.972 20 20 20 20-8.972 20-20S31.028 0 20 0z"/>
        <path fill="#FAFAFA" d="M28.75 21.667h-7.083v7.083c0 .92-.747 1.667-1.667 1.667s-1.667-.747-1.667-1.667v-7.083H11.25c-.92 0-1.667-.747-1.667-1.667s.747-1.667 1.667-1.667h7.083V11.25c0-.92.747-1.667 1.667-1.667s1.667.747 1.667 1.667v7.083h7.083c.92 0 1.667.747 1.667 1.667s-.747 1.667-1.667 1.667z"/>
    </g>
</svg>
