<svg xmlns="http://www.w3.org/2000/svg" width="754" height="758" viewBox="0 0 754 758">
    <defs>
        <linearGradient id="prefix__a" x1="-29.562%" x2="129.562%" y1="10.863%" y2="89.111%">
            <stop offset="17%" stop-color="#437FEC"/>
            <stop offset="47%" stop-color="#336CD5"/>
            <stop offset="100%" stop-color="#184EAE"/>
        </linearGradient>
        <linearGradient id="prefix__b" x1="-29.564%" x2="129.564%" y1="10.863%" y2="89.111%">
            <stop offset="17%" stop-color="#437FEC"/>
            <stop offset="47%" stop-color="#336CD5"/>
            <stop offset="100%" stop-color="#184EAE"/>
        </linearGradient>
        <linearGradient id="prefix__c" x1="-29.564%" x2="129.564%" y1="16.905%" y2="83.073%">
            <stop offset="17%" stop-color="#437FEC"/>
            <stop offset="47%" stop-color="#336CD5"/>
            <stop offset="100%" stop-color="#184EAE"/>
        </linearGradient>
        <linearGradient id="prefix__d" x1="54.647%" x2="45.152%" y1="70.862%" y2="28.57%">
            <stop offset="0%" stop-color="#E4E7FB"/>
            <stop offset="100%" stop-color="#EFF1FE"/>
        </linearGradient>
        <linearGradient id="prefix__e" x1="54.647%" x2="45.152%" y1="55.234%" y2="44.624%">
            <stop offset="0%" stop-color="#E4E7FB"/>
            <stop offset="100%" stop-color="#EFF1FE"/>
        </linearGradient>
        <linearGradient id="prefix__f" x1="-17.84%" x2="84.307%" y1="48.007%" y2="51.028%">
            <stop offset="0%" stop-color="#FFF"/>
            <stop offset="12%" stop-color="#F9FEFE"/>
            <stop offset="27%" stop-color="#E9FAFD"/>
            <stop offset="45%" stop-color="#CFF5FA"/>
            <stop offset="63%" stop-color="#AAEDF6"/>
            <stop offset="83%" stop-color="#7BE3F2"/>
            <stop offset="100%" stop-color="#4CD9ED"/>
        </linearGradient>
    </defs>
    <g fill="none">
        <g transform="translate(0 .481) rotate(102 111.524 128.54)">
            <path fill="url(#prefix__a)" d="M202.474 211.145c-.383 2.856.992 5.661 3.483 7.108 2.492 1.447 5.61 1.25 7.9-.498s3.301-4.704 2.562-7.49c-.739-2.784-3.082-4.85-5.938-5.232-1.873-.253-3.769.25-5.27 1.396-1.502 1.147-2.487 2.844-2.737 4.716z"/>
            <circle cx="187.265" cy="169.976" r="14.252" fill="url(#prefix__b)" transform="rotate(-33.95 187.265 169.976)"/>
            <path fill="url(#prefix__c)" d="M20.315 20.315c27.087-27.087 71.004-27.087 98.09 0 15.2 15.2 21.871 35.7 20.012 55.552 7.482 1.6 14.604 5.308 20.417 11.121 16.045 16.045 16.045 42.059 0 58.103-16.045 16.045-42.059 16.045-58.104 0-3.174-3.174-5.72-6.74-7.64-10.54-24.536 8.915-53.096 3.533-72.775-16.145-27.087-27.087-27.087-71.004 0-98.09z"/>
            <path fill="#FFF" d="M133.678 90.906c-1.311-2.043-2.967-3.843-4.894-5.32-7.607-5.868-18.172-6.015-25.94-.362L61.956 53.092l-22.69-17.816c-1.92-1.507-4.696-1.176-6.208.74l-4.564 5.814-4.006 5.102c-1.262 1.618-.976 3.952.638 5.219l.532.404c1.607 1.25 3.92.977 5.192-.612l4.006-5.102 3.687 2.9-3.969 5.096c-1.261 1.619-.976 3.952.639 5.219l.67.532c1.613 1.266 3.946.99 5.219-.617l4.006-5.097 3.723 2.905-3.867 4.942c-1.25 1.513-1.164 3.724.202 5.134.758.732 1.79 1.11 2.842 1.037 1.052-.072 2.024-.586 2.675-1.415l4.006-5.096 40.883 32.116c-4.165 10.176-.044 21.858 9.583 27.168 9.628 5.31 21.708 2.563 28.092-6.389 5.083-7.281 5.253-16.914.43-24.37zm-10.262 23.854c-2.36-.202-4.331-1.88-4.908-4.177-.577-2.297.368-4.707 2.352-6 1.985-1.293 4.571-1.184 6.44.272.868.68 1.511 1.607 1.845 2.66.572 1.765.223 3.699-.927 5.154-1.151 1.455-2.953 2.24-4.802 2.091z"/>
            <path fill="#EAEDFD" d="M133.22 115.27c-5.465 7.668-15.258 10.925-24.227 8.06-8.968-2.866-15.058-11.198-15.065-20.614 3.495 7.134 8.985 13.422 17.555 14.757 5.006.772 8.895-.42 11.933-2.713 1.849.151 3.65-.63 4.803-2.083 1.153-1.453 1.505-3.386.937-5.152 2.92-5.687 4.075-12.47 4.527-16.614 4.808 7.46 4.625 17.088-.463 24.36z"/>
        </g>
        <g transform="translate(0 .481) translate(111 172.519)">
            <circle cx="181.258" cy="402.444" r="181.258" fill="#FFF"/>
            <circle cx="246.512" cy="226.984" r="137.758" fill="#FFF"/>
            <circle cx="504.626" cy="332.839" r="137.758" fill="#FFF"/>
            <path fill="url(#prefix__d)" d="M294.928.145c-2.713.275-5.358 1.02-7.815 2.202-9.717 4.664-15.198 15.175-13.46 25.812l-52.82 24.759-29.318 13.757c-2.477 1.163-3.547 4.11-2.394 6.591l3.522 7.512 3.09 6.586c.468 1.004 1.317 1.78 2.359 2.156 1.041.375 2.19.32 3.19-.156l.67-.313c1.003-.468 1.779-1.315 2.156-2.355.377-1.04.325-2.187-.144-3.189l-3.086-6.586 4.788-2.234 3.09 6.586c.47 1.002 1.32 1.776 2.36 2.151 1.041.375 2.189.321 3.19-.15l.867-.405c1.003-.468 1.78-1.316 2.158-2.356.379-1.041.327-2.19-.142-3.193l-3.086-6.586 4.788-2.26 2.995 6.383c.931 1.98 3.192 3.123 5.246 2.389 1.12-.386 2.022-1.23 2.482-2.321.46-1.092.434-2.327-.072-3.398l-3.075-6.602 52.82-24.759c8.097 9.306 21.88 11.07 32.058 4.104 10.18-6.966 13.525-20.452 7.783-31.368C314.413 4.117 304.84-.93 294.928.145zm18.726 22.343c-1.396 2.256-4.067 3.38-6.655 2.799-2.588-.58-4.524-2.737-4.823-5.373-.298-2.635 1.106-5.17 3.498-6.315 1.12-.538 2.375-.723 3.602-.532 2.053.325 3.81 1.652 4.684 3.539.873 1.887.748 4.085-.333 5.861l.027.021z"/>
            <path fill="#B7C0EB" d="M319.107 12.902c4.923 9.346 3.245 20.802-4.151 28.343-7.397 7.541-18.819 9.44-28.258 4.699 8.906.095 17.981-2.23 23.647-10.15 3.304-4.629 4.07-9.13 3.309-13.332 1.081-1.776 1.206-3.975.332-5.861-.873-1.887-2.63-3.215-4.684-3.54C305.078 7.264 298.86 2.689 294.94.14c9.902-1.06 19.46 3.986 24.168 12.762z" opacity=".3"/>
            <path fill="url(#prefix__e)" d="M525.768 80.672c-1.258-.658-2.62-1.092-4.028-1.282-5.55-.754-10.935 2.242-13.22 7.357l-30.003-4.357-16.646-2.41c-1.409-.206-2.718.768-2.926 2.176l-.617 4.256-.532 3.724c-.082.568.065 1.146.41 1.606.343.46.856.765 1.425.846l.383.053c.569.084 1.147-.062 1.608-.405.461-.343.767-.856.85-1.425l.532-3.724 2.708.394-.532 3.724c-.084.569.063 1.148.407 1.608.345.46.859.764 1.428.845l.495.074c1.183.171 2.282-.647 2.458-1.83l.532-3.724 2.729.394-.532 3.623c-.193 1.127.495 2.22 1.596 2.532.593.147 1.221.037 1.728-.305.507-.342.846-.883.932-1.488l.532-3.724 29.998 4.357c.848 6.36 6.33 11.072 12.744 10.958 6.414-.115 11.723-5.02 12.345-11.405.47-5.146-2.22-10.065-6.804-12.448zm1.745 15.039c-.576.27-1.217.366-1.846.277-1.734-.295-2.916-1.92-2.663-3.66.252-1.74 1.847-2.961 3.594-2.75.637.09 1.233.372 1.707.808.793.726 1.176 1.798 1.022 2.862-.143 1.08-.827 2.013-1.814 2.474v-.011z"/>
            <path fill="#B7C0EB" d="M532.614 93.13c-.533 5.466-4.537 9.96-9.905 11.118-5.367 1.159-10.868-1.284-13.609-6.042 3.841 2.59 8.443 4.176 13.167 2.357 2.353-.803 4.257-2.56 5.246-4.841.988-.457 1.676-1.385 1.824-2.463.154-1.065-.228-2.136-1.021-2.863-.176-3.723-1.564-7.49-2.538-9.714 4.598 2.374 7.3 7.295 6.836 12.449z" opacity=".3"/>
            <rect width="411.486" height="371.353" x="170.959" y="143.952" fill="#EFF1FE" rx="23.04"/>
            <path fill="#FFF" d="M236.271 261.462H517.1229999999999V301.739H236.271zM236.271 332.95H517.1229999999999V373.227H236.271z"/>
            <path fill="url(#prefix__f)" d="M236.271 410.972H517.1229999999999V451.24899999999997H236.271z"/>
            <circle cx="271.467" cy="353.086" r="4.628" fill="#1D262D"/>
            <circle cx="318.24" cy="353.086" r="4.628" fill="#1D262D"/>
            <circle cx="365.007" cy="353.086" r="4.628" fill="#1D262D"/>
            <circle cx="294.854" cy="353.086" r="4.628" fill="#1D262D"/>
            <circle cx="341.62" cy="353.086" r="4.628" fill="#1D262D"/>
            <circle cx="435.16" cy="353.086" r="4.628" fill="#1D262D"/>
            <circle cx="388.393" cy="353.086" r="4.628" fill="#1D262D"/>
            <circle cx="411.774" cy="353.086" r="4.628" fill="#1D262D"/>
            <circle cx="481.927" cy="353.086" r="4.628" fill="#1D262D"/>
            <circle cx="458.546" cy="353.086" r="4.628" fill="#1D262D"/>
            <circle cx="318.222" cy="283.76" r="4.628" fill="#1D262D" transform="rotate(-80.81 318.222 283.76)"/>
            <circle cx="364.989" cy="283.764" r="4.628" fill="#1D262D" transform="rotate(-80.81 364.989 283.764)"/>
            <circle cx="341.602" cy="283.767" r="4.628" fill="#1D262D" transform="rotate(-80.81 341.602 283.767)"/>
            <circle cx="436.239" cy="282.204" r="4.641" fill="#1D262D" transform="rotate(-80.819 436.239 282.204)"/>
            <circle cx="388.37" cy="283.761" r="4.628" fill="#1D262D" transform="rotate(-80.81 388.37 283.761)"/>
            <circle cx="412.845" cy="282.273" r="4.641" fill="#1D262D" transform="rotate(-80.819 412.845 282.273)"/>
            <circle cx="376.7" cy="150.13" r="66.222" fill="url(#prefix__b)" transform="rotate(-45 376.7 150.13)"/>
            <path fill="#FFF" d="M340.807 147.108H412.593V153.151H340.807z" transform="rotate(-45 376.7 150.13)"/>
            <path fill="#FFF" d="M373.678 114.237H379.721V186.023H373.678z" transform="rotate(-45 376.7 150.13)"/>
        </g>
    </g>
</svg>
